<svg xmlns="http://www.w3.org/2000/svg" xmlns:xlink="http://www.w3.org/1999/xlink" viewBox="0 0 191.31 71.69"><defs><linearGradient id="a" x1="833.25" y1="62.23" x2="833.25" gradientTransform="translate(-882.33) scale(1.17 1)" gradientUnits="userSpaceOnUse"><stop offset="0" stop-color="#7cb4d1"/><stop offset="0.12" stop-color="#8abad4"/><stop offset="0.66" stop-color="#c6d5e2"/><stop offset="0.92" stop-color="#dde0e8"/></linearGradient><linearGradient id="b" x1="6.96" y1="32.29" x2="182.85" y2="32.29" gradientUnits="userSpaceOnUse"><stop offset="0" stop-color="#ffc239"/><stop offset="0.08" stop-color="#ffb939"/><stop offset="0.26" stop-color="#ffaa39"/><stop offset="0.41" stop-color="#ffa539"/><stop offset="0.99" stop-color="#ff8a15"/></linearGradient><linearGradient id="c" x1="94.79" y1="56.34" x2="94.79" y2="37.61" gradientUnits="userSpaceOnUse"><stop offset="0" stop-color="#8b4d8b"/><stop offset="0.29" stop-color="#b47fac"/><stop offset="0.61" stop-color="#dcb0ce"/><stop offset="0.86" stop-color="#f6cfe2"/><stop offset="1" stop-color="#ffdbea"/></linearGradient></defs><g style="isolation:isolate"><path d="M17.12,14c20.11-2.5,107.15-6.37,157,3.3a17.1,17.1,0,0,1,13.35,13.29c1.68,8,2.52,19.14-1.82,29.94a15.92,15.92,0,0,1-13.85,9.95C153.17,71.7,66.65,73.54,19,67A17,17,0,0,1,5.13,55,61.26,61.26,0,0,1,3.35,27,15.9,15.9,0,0,1,17.12,14Z" style="fill:#697abc;fill-rule:evenodd;opacity:0.30000000000000004"/><path d="M15.15,7.49c20.79-3.18,109.41-8.55,161,0A17,17,0,0,1,189.9,20.8c1.74,8.19,2.61,19.72-1.88,31a17.07,17.07,0,0,1-14.31,10.68c-19.27,1.77-107.36,5-156.59-.36A16.9,16.9,0,0,1,2.76,50.23,63.07,63.07,0,0,1,.91,21.33,17.08,17.08,0,0,1,15.15,7.49Z" style="fill:#4e6e93;fill-rule:evenodd"/><path d="M15.15,4.61c20.79-3.17,109.41-8.55,161,0A17,17,0,0,1,189.9,17.93c1.74,8.19,2.61,19.72-1.88,31a17.08,17.08,0,0,1-14.31,10.68c-19.27,1.77-107.36,5-156.59-.36A16.89,16.89,0,0,1,2.76,47.35,63,63,0,0,1,.91,18.46,17.1,17.1,0,0,1,15.15,4.61Z" style="fill-rule:evenodd;fill:url(#a)"/><path d="M12.79,53.25l8.06,6.4c27.69,3,91.63,3.92,146.74.56l9.52-8Z" style="fill:#427493;fill-rule:evenodd;mix-blend-mode:multiply;opacity:0.2"/><path d="M182.82,32.3v.1c0,1-.07,1.88-.15,2.82-.57,7.65-2.58,14.77-5.56,17-6.5,4.82-161.18,6.56-166.2-.6-2-2.8-3.33-8.37-3.78-14.47C7,35.37,6.94,33.57,7,31.77H7a49.74,49.74,0,0,1,.46-6.42c.73-5.37,2.36-10,5.14-12.1,1.68-1.3,7.36-2.33,15.58-3.11C50.55,8,108.6,7.68,139.36,8.88c20.6.81,36.48,2.29,38.84,4.36s3.68,6.2,4.27,11.15A51.22,51.22,0,0,1,182.82,32.3Z" style="fill:url(#b)"/><path d="M182.44,37.61c-.86,6.83-2.53,12.67-5.51,14.7-6.77,4.63-161,6.07-166,0-2-2.37-3.33-7.09-3.78-12.28.67,1.82,3.46,8.59,7.58,10.28,4.77,1.94,47.12,3.56,77.31,4s76.67-3,82.87-6S182.44,37.61,182.44,37.61Z" style="mix-blend-mode:multiply;opacity:0.5;fill:url(#c)"/><path d="M182.44,24.39c-.91-2.32-3.58-8.21-7.38-9.77-4.77-1.94-45.48-5.27-94-5.27-38.58,0-60.08,3.78-66.28,6.72-4.68,2.23-6.63,7.05-7.3,9.27.73-5.37,2.36-10,5.14-12.1,1.68-1.3,7.36-2.3,15.58-3.11,24.64-2.43,80.25-2,111.18-1.25,20.6.81,36.48,2.29,38.84,4.36S181.85,19.44,182.44,24.39Z" style="fill:#cfc2ff;mix-blend-mode:soft-light;opacity:0.5"/><path d="M151.41,13.46c-5.94.63,12.58,9.59,21.46,9.11S166.78,11.85,151.41,13.46Z" style="fill:#fff;mix-blend-mode:soft-light;opacity:0.5"/><path d="M15.62,17.94c-1,4.72,5.07,2.58,6.56-.41S16,16,15.62,17.94Z" style="fill:#fff"/></g></svg>