<svg xmlns="http://www.w3.org/2000/svg" xmlns:xlink="http://www.w3.org/1999/xlink" viewBox="0 0 95.66 66.41"><defs><linearGradient id="a" x1="645.04" y1="59.27" x2="645.04" gradientTransform="translate(-709.25) scale(1.17 1)" gradientUnits="userSpaceOnUse"><stop offset="0" stop-color="#7cb4d1"/><stop offset="0.12" stop-color="#8abad4"/><stop offset="0.66" stop-color="#c6d5e2"/><stop offset="0.92" stop-color="#dde0e8"/></linearGradient><linearGradient id="b" x1="6.96" y1="30.3" x2="87.19" y2="30.3" gradientUnits="userSpaceOnUse"><stop offset="0" stop-color="#ffc239"/><stop offset="0.08" stop-color="#ffb939"/><stop offset="0.26" stop-color="#ffaa39"/><stop offset="0.41" stop-color="#ffa539"/><stop offset="0.99" stop-color="#ff8a15"/></linearGradient><linearGradient id="c" x1="46.96" y1="54.34" x2="46.96" y2="35.61" gradientUnits="userSpaceOnUse"><stop offset="0" stop-color="#8b4d8b"/><stop offset="0.29" stop-color="#b47fac"/><stop offset="0.61" stop-color="#dcb0ce"/><stop offset="0.86" stop-color="#f6cfe2"/><stop offset="1" stop-color="#ffdbea"/></linearGradient></defs><g style="isolation:isolate"><path d="M17.12,12c20.11-2.5,44.36,1.18,61.37,3.3,6.76.84,11.93,6.62,13.34,13.29,1.68,8,2.52,19.15-1.82,30-2.3,5.71-12.73,6.83-18.92,7.22C52.44,67,28.76,66.29,19,65A17,17,0,0,1,5.13,53.05,61.31,61.31,0,0,1,3.35,25,15.91,15.91,0,0,1,17.12,12Z" style="fill:#697abc;fill-rule:evenodd;opacity:0.30000000000000004"/><path d="M15.15,5.49c20.79-3.17,13.75-8.55,65.3,0a17,17,0,0,1,13.8,13.35c1.74,8.19,2.6,19.71-1.89,31A17.19,17.19,0,0,1,78.06,60.5c-13,1.31-38.45,1.84-60.94-.37A16.77,16.77,0,0,1,2.76,48.23,63,63,0,0,1,.91,19.34,17.08,17.08,0,0,1,15.15,5.49Z" style="fill:#4e6e93;fill-rule:evenodd"/><path d="M15.15,2.62c20.79-3.18,49.28-3.78,65.3,0,6.82,1.6,12.34,6.49,13.8,13.34,1.74,8.2,2.6,19.72-1.89,31a17,17,0,0,1-14.3,10.68C58.78,59.39,30,60.34,17.12,57.26c-6.58-1.57-12.43-5.42-14.36-11.9A63.07,63.07,0,0,1,.91,16.46,17.08,17.08,0,0,1,15.15,2.62Z" style="fill-rule:evenodd;fill:url(#a)"/><path d="M12.79,51.26l8.06,6.39c11.36,2.58,40.91,1.2,51.09.56l9.51-8Z" style="fill:#427493;fill-rule:evenodd;mix-blend-mode:multiply;opacity:0.2"/><path d="M87.17,30.3v.11c0,.94-.08,1.88-.15,2.81-.58,7.66-2.58,14.77-5.57,17C75,55,15.93,56.76,10.91,49.6c-2-2.8-3.33-8.36-3.78-14.47C7,33.37,6.94,31.57,7,29.77H7a49.58,49.58,0,0,1,.46-6.41c.73-5.38,2.36-10,5.14-12.11C14.25,10,21.18,7.44,29.4,6.58c8.44-.89,31,0,39.42.68,5.07.43,11.36,1.91,13.73,4s3.67,6.2,4.27,11.15A53.91,53.91,0,0,1,87.17,30.3Z" style="fill:url(#b)"/><path d="M86.79,35.61c-.87,6.83-2.54,12.67-5.51,14.7-6.78,4.63-65.35,6.08-70.37,0-2-2.38-3.33-7.1-3.78-12.28.67,1.81,3.32,9,7.58,10.27,18.36,5.6,54.66,3.61,64.53-2C85.22,43,86.79,35.61,86.79,35.61Z" style="mix-blend-mode:multiply;opacity:0.5;fill:url(#c)"/><path d="M86.79,22.39c-.92-2.32-3.58-8.21-7.38-9.77-4.77-1.94-47.2-6.43-64.68,1.46-4.73,2.13-6.63,7-7.3,9.27.73-5.38,2.36-10,5.14-12.11C14.25,10,21.18,7.39,29.4,6.58,54,4.15,77.89,5.93,82.52,11.24,84.51,13.53,86.19,17.44,86.79,22.39Z" style="fill:#cfc2ff;mix-blend-mode:soft-light;opacity:0.5"/><path d="M57.34,13.39C51.4,14,69.92,23,78.8,22.49S72.7,11.78,57.34,13.39Z" style="fill:#fff;mix-blend-mode:soft-light;opacity:0.5"/><path d="M15.62,15.94c-1,4.72,5.07,2.58,6.56-.41S16,14,15.62,15.94Z" style="fill:#fff"/></g></svg>